<svg xmlns="http://www.w3.org/2000/svg" viewBox="0 0 512 512" style="enable-background:new 0 0 512 512" xml:space="preserve">
  <style>
    .st0{fill:#2e3b55} .st1{fill:#4a6da7} .st2{fill:#627eb4} .st3{fill:#7a90c0}
  </style>
  <path class="st0" d="M472 352H40a8 8 0 0 0-8 8v32a8 8 0 0 0 8 8h432a8 8 0 0 0 8-8v-32a8 8 0 0 0-8-8z"/>
  <path class="st1" d="M392 232H264c-4.4 0-8 3.6-8 8v120h144V240c0-4.4-3.6-8-8-8z"/>
  <path class="st2" d="M296 232h-32c-4.4 0-8 3.6-8 8v120h48V240c0-4.4-3.6-8-8-8zm96 0h-32c-4.4 0-8 3.6-8 8v120h48V240c0-4.4-3.6-8-8-8z"/>
  <path class="st3" d="m256 120-96 56v144h96V120z"/>
  <path class="st1" d="m256 120-48 28v172h48V120z"/>
  <path class="st2" d="M144 248H80c-4.4 0-8 3.6-8 8v64h80v-64c0-4.4-3.6-8-8-8z"/>
  <path class="st3" d="M112 248H80c-4.4 0-8 3.6-8 8v64h48v-64c0-4.4-3.6-8-8-8z"/>
  <path class="st1" d="M128 176H64c-4.4 0-8 3.6-8 8v64h80v-64c0-4.4-3.6-8-8-8z"/>
  <path class="st3" d="M96 176H64c-4.4 0-8 3.6-8 8v64h48v-64c0-4.4-3.6-8-8-8z"/>
  <path class="st2" d="m416 192-64 40v128h96V208a16 16 0 0 0-32 0z"/>
  <path class="st1" d="m416 192-32 20v148h32V192z"/>
  <path class="st3" d="M376 272h-16a4 4 0 0 0-4 4v24a4 4 0 0 0 4 4h16a4 4 0 0 0 4-4v-24a4 4 0 0 0-4-4zm0-48h-16a4 4 0 0 0-4 4v24a4 4 0 0 0 4 4h16a4 4 0 0 0 4-4v-24a4 4 0 0 0-4-4z"/>
  <path class="st3" d="M320 272h-16a4 4 0 0 0-4 4v24a4 4 0 0 0 4 4h16a4 4 0 0 0 4-4v-24a4 4 0 0 0-4-4zm0-48h-16a4 4 0 0 0-4 4v24a4 4 0 0 0 4 4h16a4 4 0 0 0 4-4v-24a4 4 0 0 0-4-4z"/>
  <path class="st3" d="M208 152h-16a4 4 0 0 0-4 4v24a4 4 0 0 0 4 4h16a4 4 0 0 0 4-4v-24a4 4 0 0 0-4-4zm0 48h-16a4 4 0 0 0-4 4v24a4 4 0 0 0 4 4h16a4 4 0 0 0 4-4v-24a4 4 0 0 0-4-4zm0 48h-16a4 4 0 0 0-4 4v24a4 4 0 0 0 4 4h16a4 4 0 0 0 4-4v-24a4 4 0 0 0-4-4z"/>
  <path class="st3" d="M112 284h-16a4 4 0 0 0-4 4v16a4 4 0 0 0 4 4h16a4 4 0 0 0 4-4v-16a4 4 0 0 0-4-4zm0-60h-16a4 4 0 0 0-4 4v16a4 4 0 0 0 4 4h16a4 4 0 0 0 4-4v-16a4 4 0 0 0-4-4zm0-48h-16a4 4 0 0 0-4 4v16a4 4 0 0 0 4 4h16a4 4 0 0 0 4-4v-16a4 4 0 0 0-4-4z"/>
</svg>
