<?xml version="1.0" encoding="utf-8"?>
<svg version="1.1" id="Layer_1"
xmlns="http://www.w3.org/2000/svg"
xmlns:xlink="http://www.w3.org/1999/xlink"
width="242px" height="80px"
xml:space="preserve">
<g id="PathID_77" transform="matrix(0.0156275, -0.999878, 0.999878, 0.0156275, 85.5, 23.7)" opacity="1">
<path style="fill:#D7D7D7;fill-opacity:1" d="M-5 -11.65L5 -11.65L5 11.7L-5 11.7L-5 -11.65" />
</g>
<g id="PathID_78" transform="matrix(0.0156275, -0.999878, 0.999878, 0.0156275, 85.5, 23.7)" opacity="1">
</g>
<g id="PathID_79" transform="matrix(1, 0, 0, 1, 78.6, 14.5)" opacity="1">
<path style="fill:#D7D7D7;fill-opacity:1" d="M-5 -11.65L5 -11.65L5 11.7L-5 11.7L-5 -11.65" />
</g>
<g id="PathID_80" transform="matrix(1, 0, 0, 1, 78.6, 14.5)" opacity="1">
</g>
<g id="PathID_81" transform="matrix(1, 0, 0, 2.14473, 101.95, 27.8)" opacity="1">
<path style="fill:#D7D7D7;fill-opacity:1" d="M-5 -11.65L5 -11.65L5 11.7L-5 11.7L-5 -11.65" />
</g>
<g id="PathID_82" transform="matrix(1, 0, 0, 2.14473, 101.95, 27.8)" opacity="1">
</g>
<g id="PathID_83" transform="matrix(0.00537853, -0.999986, 0.999986, 0.00537853, 85.45, 47.75)" opacity="1">
<path style="fill:#D7D7D7;fill-opacity:1" d="M-5 -11.65L5 -11.65L5 11.7L-5 11.7L-5 -11.65" />
</g>
<g id="PathID_84" transform="matrix(0.00537853, -0.999986, 0.999986, 0.00537853, 85.45, 47.75)" opacity="1">
</g>
<g id="PathID_85" transform="matrix(1, 0, 0, 1.43916, 116.5, 35.9)" opacity="1">
<path style="fill:#D7D7D7;fill-opacity:1" d="M-5 -11.65L5 -11.65L5 11.7L-5 11.7L-5 -11.65" />
</g>
<g id="PathID_86" transform="matrix(1, 0, 0, 1.43916, 116.5, 35.9)" opacity="1">
</g>
<g id="PathID_87" transform="matrix(1, 0, 0, 1.81638, 132.2, 31.55)" opacity="1">
<path style="fill:#A6C9ED;fill-opacity:1" d="M-5 -11.65L5 -11.65L5 11.7L-5 11.7L-5 -11.65" />
</g>
<g id="PathID_88" transform="matrix(1, 0, 0, 1.81638, 132.2, 31.55)" opacity="1">
</g>
<g id="PathID_89" transform="matrix(0.00513917, -0.999987, 1.76536, 0.00907259, 132, 7.9)" opacity="1">
<path style="fill:#A6C9ED;fill-opacity:1" d="M-5 -11.65L5 -11.65L5 11.7L-5 11.7L-5 -11.65" />
</g>
<g id="PathID_90" transform="matrix(0.00513917, -0.999987, 1.76536, 0.00907259, 132, 7.9)" opacity="1">
</g>
<g id="PathID_91" transform="matrix(1, 0, 0, 1.43916, 147.9, 35.85)" opacity="1">
<path style="fill:#D7D7D7;fill-opacity:1" d="M-5 -11.65L5 -11.65L5 11.7L-5 11.7L-5 -11.65" />
</g>
<g id="PathID_92" transform="matrix(1, 0, 0, 1.43916, 147.9, 35.85)" opacity="1">
</g>
<g id="PathID_93" transform="matrix(0.46875, 0, 0, 0.46875, 43.3, 70.9)" opacity="1">
<path style="fill:#D7D7D7;fill-opacity:1" d="M-0.05 -36.65L8.25 -36.65L16.8 -17.65L24.15 -36.65L31.85 -36.65L19.45 -8.8Q17.45 -4.25 15.35 -1.9Q13.25 0.45 9.9 0.45Q6.65 0.45 4.8 0.05L4.8 -5.5L7.65 -5.4Q10.2 -5.4 11.3 -6.3Q12.45 -7.25 13.45 -10.35L-0.05 -36.65" />
</g>
<g id="PathID_94" transform="matrix(0.46875, 0, 0, 0.46875, 43.3, 70.9)" opacity="1">
</g>
<g id="PathID_95" transform="matrix(0.46875, 0, 0, 0.46875, 57.3, 70.9)" opacity="1">
<path style="fill:#D7D7D7;fill-opacity:1" d="M3.5 -26.55L10.05 -26.55L10.05 -22.65Q11.3 -24.65 13.45 -25.9Q15.65 -27.15 18.3 -27.15Q22.95 -27.15 26.15 -23.5Q29.4 -19.9 29.4 -13.4Q29.4 -6.75 26.15 -3.05Q22.9 0.6 18.25 0.6Q16.05 0.6 14.25 -0.25Q12.5 -1.15 10.55 -3.25L10.55 10.1L3.5 10.1L3.5 -26.55M10.45 -13.7Q10.45 -9.25 12.2 -7.1Q13.95 -5 16.5 -5Q18.95 -5 20.55 -6.95Q22.2 -8.9 22.2 -13.35Q22.2 -17.55 20.5 -19.55Q18.85 -21.6 16.4 -21.6Q13.8 -21.6 12.1 -19.6Q10.45 -17.6 10.45 -13.7" />
</g>
<g id="PathID_96" transform="matrix(0.46875, 0, 0, 0.46875, 57.3, 70.9)" opacity="1">
</g>
<g id="PathID_97" transform="matrix(0.46875, 0, 0, 0.46875, 71.95, 70.9)" opacity="1">
<path style="fill:#D7D7D7;fill-opacity:1" d="M8.95 -18.35L2.6 -19.5Q3.65 -23.4 6.25 -25.25Q8.9 -27.15 14.05 -27.15Q18.75 -27.15 21.05 -26Q23.35 -24.9 24.3 -23.2Q25.25 -21.5 25.25 -16.9L25.15 -8.7Q25.15 -5.2 25.45 -3.55Q25.8 -1.9 26.75 0L19.8 0Q19.5 -0.7 19.1 -2.05L18.85 -2.9Q17.05 -1.15 15 -0.25Q12.95 0.6 10.65 0.6Q6.55 0.6 4.2 -1.6Q1.85 -3.8 1.85 -7.2Q1.85 -9.45 2.9 -11.2Q3.95 -12.95 5.9 -13.85Q7.85 -14.8 11.45 -15.5Q16.4 -16.45 18.3 -17.25L18.3 -17.95Q18.3 -20 17.3 -20.85Q16.3 -21.75 13.55 -21.75Q11.65 -21.75 10.6 -20.95Q9.55 -20.2 8.95 -18.35M18.3 -12.65Q16.95 -12.2 14.05 -11.55Q11.15 -10.95 10.25 -10.35Q8.9 -9.4 8.9 -7.9Q8.9 -6.45 9.95 -5.4Q11.05 -4.35 12.75 -4.35Q14.65 -4.35 16.35 -5.55Q17.6 -6.5 18 -7.85Q18.3 -8.75 18.3 -11.25L18.3 -12.65" />
</g>
<g id="PathID_98" transform="matrix(0.46875, 0, 0, 0.46875, 71.95, 70.9)" opacity="1">
</g>
<g id="PathID_99" transform="matrix(0.46875, 0, 0, 0.46875, 85.3, 70.9)" opacity="1">
<path style="fill:#D7D7D7;fill-opacity:1" d="M5.6 -26.55L29.1 -26.55L29.1 0L22.05 0L22.05 -20.85L12.55 -20.85L12.55 -8.9Q12.55 -4.35 11.5 -2.5Q10.45 -0.7 9.15 -0.1Q7.9 0.45 5.05 0.45Q3.4 0.45 0.65 0L0.65 -5.15L1.8 -5.1L3.5 -5.05Q4.95 -5.05 5.25 -5.95Q5.6 -6.9 5.6 -11.2L5.6 -26.55" />
</g>
<g id="PathID_100" transform="matrix(0.46875, 0, 0, 0.46875, 85.3, 70.9)" opacity="1">
</g>
<g id="PathID_101" transform="matrix(0.46875, 0, 0, 0.46875, 98.35, 71)" opacity="1">
<path style="fill:#A6C9ED;fill-opacity:1" d="M12.05 0L12.05 -30.45L1.15 -30.45L1.15 -36.65L30.25 -36.65L30.25 -30.45L19.45 -30.45L19.45 0L12.05 0" />
</g>
<g id="PathID_102" transform="matrix(0.46875, 0, 0, 0.46875, 98.35, 71)" opacity="1">
</g>
<g id="PathID_103" transform="matrix(0.46875, 0, 0, 0.46875, 111.8, 71)" opacity="1">
<path style="fill:#A6C9ED;fill-opacity:1" d="M19.05 -8.45L26.05 -7.25Q24.7 -3.4 21.75 -1.4Q18.85 0.6 14.5 0.6Q7.55 0.6 4.25 -3.9Q1.65 -7.55 1.65 -13.05Q1.65 -19.65 5.1 -23.4Q8.55 -27.15 13.8 -27.15Q19.75 -27.15 23.15 -23.2Q26.6 -19.3 26.45 -11.25L8.85 -11.25Q8.9 -8.1 10.5 -6.35Q12.15 -4.65 14.55 -4.65Q16.2 -4.65 17.3 -5.55Q18.45 -6.45 19.05 -8.45M19.45 -15.55Q19.35 -18.55 17.85 -20.15Q16.35 -21.75 14.2 -21.75Q11.9 -21.75 10.4 -20.05Q8.95 -18.4 8.95 -15.55L19.45 -15.55" />
</g>
<g id="PathID_104" transform="matrix(0.46875, 0, 0, 0.46875, 111.8, 71)" opacity="1">
</g>
<g id="PathID_105" transform="matrix(0.46875, 0, 0, 0.46875, 124.8, 71)" opacity="1">
<path style="fill:#A6C9ED;fill-opacity:1" d="M0.3 0L9.85 -13.65L0.7 -26.55L9.3 -26.55L13.95 -19.25L18.9 -26.55L27.1 -26.55L18.15 -13.95L27.95 0L19.3 0L13.95 -8.2L8.5 0L0.3 0" />
</g>
<g id="PathID_106" transform="matrix(0.46875, 0, 0, 0.46875, 124.8, 71)" opacity="1">
</g>
<g id="PathID_107" transform="matrix(0.46875, 0, 0, 0.46875, 139.5, 71.05)" opacity="1">
<path style="fill:#D7D7D7;fill-opacity:1" d="M3.85 -36.65L32.95 -36.65L32.95 0L25.55 0L25.55 -30.45L11.25 -30.45L11.25 0L3.85 0L3.85 -36.65" />
</g>
<g id="PathID_108" transform="matrix(0.46875, 0, 0, 0.46875, 139.5, 71.05)" opacity="1">
</g>
<g id="PathID_109" transform="matrix(0.46875, 0, 0, 0.46875, 156.75, 71.05)" opacity="1">
<path style="fill:#D7D7D7;fill-opacity:1" d="M3.5 -26.55L10.05 -26.55L10.05 -22.65Q11.3 -24.65 13.45 -25.9Q15.65 -27.15 18.3 -27.15Q22.95 -27.15 26.15 -23.5Q29.4 -19.9 29.4 -13.4Q29.4 -6.75 26.15 -3.05Q22.9 0.6 18.25 0.6Q16.05 0.6 14.25 -0.25Q12.5 -1.15 10.55 -3.25L10.55 10.1L3.5 10.1L3.5 -26.55M10.45 -13.7Q10.45 -9.25 12.2 -7.1Q13.95 -5 16.5 -5Q18.95 -5 20.55 -6.95Q22.2 -8.9 22.2 -13.35Q22.2 -17.55 20.5 -19.55Q18.85 -21.6 16.4 -21.6Q13.8 -21.6 12.1 -19.6Q10.45 -17.6 10.45 -13.7" />
</g>
<g id="PathID_110" transform="matrix(0.46875, 0, 0, 0.46875, 156.75, 71.05)" opacity="1">
</g>
<g id="PathID_111" transform="matrix(0.46875, 0, 0, 0.46875, 171.4, 71.05)" opacity="1">
<path style="fill:#D7D7D7;fill-opacity:1" d="M2 -13.65Q2 -17.15 3.7 -20.4Q5.45 -23.7 8.6 -25.4Q11.75 -27.15 15.7 -27.15Q21.7 -27.15 25.55 -23.2Q29.45 -19.3 29.45 -13.35Q29.45 -7.3 25.55 -3.35Q21.65 0.6 15.75 0.6Q12.05 0.6 8.75 -1.05Q5.45 -2.7 3.7 -5.85Q2 -9.05 2 -13.65M9.2 -13.25Q9.2 -9.3 11.05 -7.2Q12.95 -5.15 15.7 -5.15Q18.45 -5.15 20.3 -7.2Q22.2 -9.3 22.2 -13.3Q22.2 -17.2 20.3 -19.3Q18.45 -21.4 15.7 -21.4Q12.95 -21.4 11.05 -19.3Q9.2 -17.2 9.2 -13.25" />
</g>
<g id="PathID_112" transform="matrix(0.46875, 0, 0, 0.46875, 171.4, 71.05)" opacity="1">
</g>
<g id="PathID_113" transform="matrix(0.46875, 0, 0, 0.46875, 185.7, 71.05)" opacity="1">
<path style="fill:#D7D7D7;fill-opacity:1" d="M3.9 -26.55L12.6 -26.55L19.2 -8.05L25.8 -26.55L34.55 -26.55L34.55 0L28.55 0L28.55 -17.45L22.05 0L16.1 0L9.9 -17.45L9.9 0L3.9 0L3.9 -26.55" />
</g>
<g id="PathID_114" transform="matrix(0.46875, 0, 0, 0.46875, 185.7, 71.05)" opacity="1">
</g>
</svg>
